<svg width="72" height="21" viewBox="0 0 72 21" fill="none" xmlns="http://www.w3.org/2000/svg">
<path d="M6.96 12.316C7.064 12.316 7.144 12.368 7.2 12.472C7.256 12.576 7.284 12.708 7.284 12.868C7.284 13.068 7.256 13.224 7.2 13.336C7.144 13.44 7.056 13.512 6.936 13.552C6.456 13.72 5.928 13.816 5.352 13.84C5.192 14.504 4.888 15.04 4.44 15.448C4 15.856 3.512 16.06 2.976 16.06C2.168 16.06 1.58 15.752 1.212 15.136C0.844 14.52 0.66 13.628 0.66 12.46C0.66 11.428 0.788 10.308 1.044 9.1C1.3 7.884 1.672 6.852 2.16 6.004C2.656 5.148 3.244 4.72 3.924 4.72C4.292 4.72 4.588 4.88 4.812 5.2C5.036 5.512 5.148 5.92 5.148 6.424C5.148 7.08 5.024 7.732 4.776 8.38C4.528 9.028 4.116 9.708 3.54 10.42C4.076 10.46 4.512 10.684 4.848 11.092C5.184 11.492 5.384 11.988 5.448 12.58C5.824 12.556 6.272 12.476 6.792 12.34C6.84 12.324 6.896 12.316 6.96 12.316ZM3.648 5.908C3.488 5.908 3.312 6.148 3.12 6.628C2.936 7.1 2.764 7.744 2.604 8.56C2.444 9.376 2.324 10.268 2.244 11.236C2.772 10.268 3.192 9.416 3.504 8.68C3.824 7.936 3.984 7.276 3.984 6.7C3.984 6.444 3.952 6.248 3.888 6.112C3.832 5.976 3.752 5.908 3.648 5.908ZM3.024 14.788C3.272 14.788 3.492 14.684 3.684 14.476C3.876 14.268 4.004 13.968 4.068 13.576C3.82 13.408 3.628 13.188 3.492 12.916C3.364 12.644 3.3 12.356 3.3 12.052C3.3 11.94 3.316 11.788 3.348 11.596H3.312C2.984 11.596 2.708 11.76 2.484 12.088C2.268 12.408 2.16 12.84 2.16 13.384C2.16 13.84 2.244 14.188 2.412 14.428C2.588 14.668 2.792 14.788 3.024 14.788ZM11.5999 13.324C11.7039 13.324 11.7839 13.372 11.8399 13.468C11.9039 13.564 11.9359 13.696 11.9359 13.864C11.9359 14.184 11.8599 14.432 11.7079 14.608C11.4119 14.968 10.9919 15.3 10.4479 15.604C9.91188 15.908 9.33588 16.06 8.71988 16.06C7.87988 16.06 7.22788 15.832 6.76388 15.376C6.29988 14.92 6.06787 14.296 6.06787 13.504C6.06787 12.952 6.18388 12.44 6.41588 11.968C6.64788 11.488 6.96788 11.108 7.37588 10.828C7.79188 10.548 8.25988 10.408 8.77988 10.408C9.24388 10.408 9.61588 10.548 9.89588 10.828C10.1759 11.1 10.3159 11.472 10.3159 11.944C10.3159 12.496 10.1159 12.972 9.71588 13.372C9.32388 13.764 8.65588 14.076 7.71188 14.308C7.91188 14.676 8.29188 14.86 8.85188 14.86C9.21188 14.86 9.61988 14.736 10.0759 14.488C10.5399 14.232 10.9399 13.9 11.2759 13.492C11.3719 13.38 11.4799 13.324 11.5999 13.324ZM8.57588 11.584C8.27988 11.584 8.02788 11.756 7.81988 12.1C7.61988 12.444 7.51988 12.86 7.51988 13.348V13.372C7.99188 13.26 8.36388 13.092 8.63588 12.868C8.90788 12.644 9.04388 12.384 9.04388 12.088C9.04388 11.936 8.99988 11.816 8.91188 11.728C8.83188 11.632 8.71988 11.584 8.57588 11.584ZM20.0668 13.324C20.1708 13.324 20.2508 13.372 20.3068 13.468C20.3708 13.564 20.4028 13.696 20.4028 13.864C20.4028 14.184 20.3268 14.432 20.1748 14.608C19.8308 15.032 19.4548 15.38 19.0468 15.652C18.6388 15.924 18.1708 16.06 17.6428 16.06C16.6668 16.06 15.9868 15.652 15.6028 14.836C15.3948 15.172 15.1188 15.46 14.7748 15.7C14.4308 15.94 14.0628 16.06 13.6708 16.06C12.9108 16.06 12.3508 15.752 11.9908 15.136C11.6388 14.512 11.4628 13.672 11.4628 12.616C11.4628 12.224 11.4828 11.788 11.5228 11.308H11.0308C10.7908 11.308 10.6268 11.264 10.5388 11.176C10.4588 11.088 10.4188 10.948 10.4188 10.756C10.4188 10.308 10.5988 10.084 10.9588 10.084H11.6908C11.8428 9.236 12.0548 8.468 12.3268 7.78C12.5988 7.092 12.9268 6.544 13.3108 6.136C13.6948 5.728 14.1108 5.524 14.5588 5.524C14.8948 5.524 15.1588 5.672 15.3508 5.968C15.5428 6.264 15.6388 6.636 15.6388 7.084C15.6388 8.212 15.2028 9.212 14.3308 10.084H15.4228C15.5748 9.236 15.7868 8.468 16.0588 7.78C16.3308 7.092 16.6588 6.544 17.0428 6.136C17.4268 5.728 17.8428 5.524 18.2908 5.524C18.6268 5.524 18.8908 5.672 19.0828 5.968C19.2748 6.264 19.3708 6.636 19.3708 7.084C19.3708 8.212 18.9348 9.212 18.0628 10.084H19.1548C19.2828 10.084 19.3748 10.112 19.4308 10.168C19.4868 10.224 19.5148 10.328 19.5148 10.48C19.5148 11.032 19.0628 11.308 18.1588 11.308H16.7068C16.6828 11.692 16.6708 12.084 16.6708 12.484C16.6708 13.316 16.7668 13.9 16.9588 14.236C17.1588 14.572 17.4708 14.74 17.8948 14.74C18.2388 14.74 18.5428 14.636 18.8068 14.428C19.0708 14.22 19.3828 13.908 19.7428 13.492C19.8388 13.38 19.9468 13.324 20.0668 13.324ZM14.2348 6.676C14.1148 6.676 13.9788 6.828 13.8268 7.132C13.6828 7.428 13.5428 7.844 13.4068 8.38C13.2788 8.908 13.1708 9.496 13.0828 10.144C13.5548 9.736 13.9068 9.28 14.1388 8.776C14.3788 8.264 14.4988 7.8 14.4988 7.384C14.4988 6.912 14.4108 6.676 14.2348 6.676ZM17.9668 6.676C17.8468 6.676 17.7108 6.828 17.5588 7.132C17.4148 7.428 17.2748 7.844 17.1388 8.38C17.0108 8.908 16.9028 9.496 16.8148 10.144C17.2868 9.736 17.6388 9.28 17.8708 8.776C18.1108 8.264 18.2308 7.8 18.2308 7.384C18.2308 6.912 18.1428 6.676 17.9668 6.676ZM13.9228 14.74C14.1628 14.74 14.4028 14.628 14.6428 14.404C14.8828 14.18 15.0868 13.904 15.2548 13.576C15.2148 13.328 15.1948 13.008 15.1948 12.616C15.1948 12.224 15.2148 11.788 15.2548 11.308H12.9748C12.9508 11.692 12.9388 12.084 12.9388 12.484C12.9388 13.292 13.0228 13.872 13.1908 14.224C13.3668 14.568 13.6108 14.74 13.9228 14.74ZM24.7835 13.324C24.8875 13.324 24.9675 13.372 25.0235 13.468C25.0875 13.564 25.1195 13.696 25.1195 13.864C25.1195 14.184 25.0435 14.432 24.8915 14.608C24.5955 14.968 24.1755 15.3 23.6315 15.604C23.0955 15.908 22.5195 16.06 21.9035 16.06C21.0635 16.06 20.4115 15.832 19.9475 15.376C19.4835 14.92 19.2515 14.296 19.2515 13.504C19.2515 12.952 19.3675 12.44 19.5995 11.968C19.8315 11.488 20.1515 11.108 20.5595 10.828C20.9755 10.548 21.4435 10.408 21.9635 10.408C22.4275 10.408 22.7995 10.548 23.0795 10.828C23.3595 11.1 23.4995 11.472 23.4995 11.944C23.4995 12.496 23.2995 12.972 22.8995 13.372C22.5075 13.764 21.8395 14.076 20.8955 14.308C21.0955 14.676 21.4755 14.86 22.0355 14.86C22.3955 14.86 22.8035 14.736 23.2595 14.488C23.7235 14.232 24.1235 13.9 24.4595 13.492C24.5555 13.38 24.6635 13.324 24.7835 13.324ZM21.7595 11.584C21.4635 11.584 21.2115 11.756 21.0035 12.1C20.8035 12.444 20.7035 12.86 20.7035 13.348V13.372C21.1755 13.26 21.5475 13.092 21.8195 12.868C22.0915 12.644 22.2275 12.384 22.2275 12.088C22.2275 11.936 22.1835 11.816 22.0955 11.728C22.0155 11.632 21.9035 11.584 21.7595 11.584ZM28.9904 12.052C29.1664 12.052 29.3144 12.116 29.4344 12.244C29.5624 12.364 29.6264 12.516 29.6264 12.7C29.6264 12.804 29.6024 12.916 29.5544 13.036C29.4264 13.332 29.2464 13.58 29.0144 13.78C28.7824 13.98 28.5264 14.08 28.2464 14.08C28.0224 14.08 27.8304 14 27.6704 13.84C27.5184 13.68 27.4424 13.464 27.4424 13.192C27.4424 13.04 27.4504 12.876 27.4664 12.7C27.4824 12.572 27.4904 12.484 27.4904 12.436C27.4904 12.372 27.4744 12.324 27.4424 12.292C27.4184 12.26 27.3864 12.244 27.3464 12.244C27.2344 12.244 27.0824 12.38 26.8904 12.652C26.6984 12.916 26.5064 13.268 26.3144 13.708C26.1224 14.148 25.9664 14.612 25.8464 15.1C25.7584 15.484 25.6584 15.74 25.5464 15.868C25.4344 15.996 25.2504 16.06 24.9944 16.06C24.6904 16.06 24.4744 15.9 24.3464 15.58C24.2264 15.26 24.1664 14.748 24.1664 14.044C24.1664 13.004 24.3144 12.016 24.6104 11.08C24.6824 10.848 24.7984 10.68 24.9584 10.576C25.1264 10.464 25.3584 10.408 25.6544 10.408C25.8144 10.408 25.9264 10.428 25.9904 10.468C26.0544 10.508 26.0864 10.584 26.0864 10.696C26.0864 10.824 26.0264 11.112 25.9064 11.56C25.8264 11.88 25.7624 12.16 25.7144 12.4C25.6664 12.64 25.6264 12.936 25.5944 13.288C25.8584 12.6 26.1544 12.04 26.4824 11.608C26.8104 11.176 27.1304 10.868 27.4424 10.684C27.7544 10.5 28.0384 10.408 28.2944 10.408C28.5264 10.408 28.7024 10.476 28.8224 10.612C28.9504 10.74 29.0144 10.932 29.0144 11.188C29.0144 11.34 28.9704 11.628 28.8824 12.052H28.9904ZM37.0678 13.804C37.0678 14.244 36.9558 14.628 36.7318 14.956C36.5078 15.284 36.2038 15.54 35.8198 15.724C35.4438 15.908 35.0278 16 34.5718 16H30.5278V7.48H34.7638C35.1638 7.48 35.5078 7.588 35.7958 7.804C36.0918 8.012 36.3158 8.284 36.4678 8.62C36.6278 8.948 36.7078 9.292 36.7078 9.652C36.7078 10.068 36.5998 10.46 36.3838 10.828C36.1758 11.188 35.8758 11.456 35.4838 11.632C35.9718 11.776 36.3558 12.044 36.6358 12.436C36.9238 12.82 37.0678 13.276 37.0678 13.804ZM35.9758 13.612C35.9758 13.348 35.9158 13.104 35.7958 12.88C35.6838 12.656 35.5278 12.476 35.3278 12.34C35.1358 12.204 34.9118 12.136 34.6558 12.136H31.6078V15.064H34.5718C34.8358 15.064 35.0718 14.996 35.2798 14.86C35.4958 14.724 35.6638 14.548 35.7838 14.332C35.9118 14.108 35.9758 13.868 35.9758 13.612ZM31.6078 8.416V11.26H34.3198C34.5758 11.26 34.7998 11.196 34.9918 11.068C35.1918 10.94 35.3478 10.768 35.4598 10.552C35.5798 10.336 35.6398 10.1 35.6398 9.844C35.6398 9.572 35.5838 9.332 35.4718 9.124C35.3678 8.908 35.2198 8.736 35.0278 8.608C34.8438 8.48 34.6318 8.416 34.3918 8.416H31.6078ZM38.3506 13.492V9.736H39.4066V13.288C39.4066 13.928 39.5186 14.408 39.7426 14.728C39.9666 15.048 40.2986 15.208 40.7386 15.208C41.0266 15.208 41.3026 15.148 41.5666 15.028C41.8386 14.9 42.0826 14.72 42.2986 14.488C42.5146 14.256 42.6826 13.98 42.8026 13.66V9.736H43.8586V14.8C43.8586 14.928 43.8826 15.024 43.9306 15.088C43.9866 15.144 44.0746 15.176 44.1946 15.184V16C44.0746 16.016 43.9786 16.024 43.9066 16.024C43.8426 16.032 43.7786 16.036 43.7146 16.036C43.5146 16.036 43.3426 15.976 43.1986 15.856C43.0546 15.728 42.9786 15.572 42.9706 15.388L42.9466 14.656C42.6746 15.12 42.3066 15.48 41.8426 15.736C41.3866 15.992 40.8866 16.12 40.3426 16.12C39.6866 16.12 39.1906 15.9 38.8546 15.46C38.5186 15.012 38.3506 14.356 38.3506 13.492ZM45.2096 12.88C45.2096 12.288 45.3296 11.748 45.5696 11.26C45.8176 10.764 46.1536 10.368 46.5776 10.072C47.0096 9.776 47.5016 9.628 48.0536 9.628C48.5576 9.628 49.0096 9.76 49.4096 10.024C49.8096 10.288 50.1216 10.608 50.3456 10.984V7.24H51.4016V14.8C51.4016 14.928 51.4256 15.024 51.4736 15.088C51.5296 15.144 51.6176 15.176 51.7376 15.184V16C51.5376 16.032 51.3816 16.048 51.2696 16.048C51.0616 16.048 50.8776 15.976 50.7176 15.832C50.5656 15.688 50.4896 15.528 50.4896 15.352V14.824C50.2416 15.224 49.9096 15.54 49.4936 15.772C49.0776 16.004 48.6456 16.12 48.1976 16.12C47.7656 16.12 47.3656 16.036 46.9976 15.868C46.6376 15.692 46.3216 15.452 46.0496 15.148C45.7856 14.844 45.5776 14.5 45.4256 14.116C45.2816 13.724 45.2096 13.312 45.2096 12.88ZM50.3456 13.804V12.004C50.2496 11.732 50.0936 11.488 49.8776 11.272C49.6616 11.048 49.4176 10.872 49.1456 10.744C48.8816 10.608 48.6176 10.54 48.3536 10.54C48.0416 10.54 47.7576 10.608 47.5016 10.744C47.2536 10.872 47.0376 11.048 46.8536 11.272C46.6776 11.488 46.5416 11.736 46.4456 12.016C46.3496 12.296 46.3016 12.588 46.3016 12.892C46.3016 13.204 46.3536 13.5 46.4576 13.78C46.5696 14.06 46.7216 14.308 46.9136 14.524C47.1136 14.74 47.3416 14.908 47.5976 15.028C47.8616 15.148 48.1456 15.208 48.4496 15.208C48.6416 15.208 48.8376 15.172 49.0376 15.1C49.2456 15.028 49.4416 14.928 49.6256 14.8C49.8096 14.672 49.9656 14.524 50.0936 14.356C50.2216 14.18 50.3056 13.996 50.3456 13.804ZM55.6605 16.072C55.2365 16.072 54.8445 15.988 54.4845 15.82C54.1325 15.644 53.8285 15.408 53.5725 15.112C53.3165 14.808 53.1165 14.464 52.9725 14.08C52.8365 13.696 52.7685 13.296 52.7685 12.88C52.7685 12.44 52.8365 12.024 52.9725 11.632C53.1165 11.24 53.3165 10.896 53.5725 10.6C53.8365 10.296 54.1445 10.06 54.4965 9.892C54.8485 9.716 55.2405 9.628 55.6725 9.628C56.1925 9.628 56.6445 9.756 57.0285 10.012C57.4205 10.268 57.7485 10.592 58.0125 10.984V9.736H58.9485V15.928C58.9485 16.52 58.8045 17.02 58.5165 17.428C58.2365 17.836 57.8525 18.144 57.3645 18.352C56.8845 18.568 56.3485 18.676 55.7565 18.676C55.0525 18.676 54.4765 18.552 54.0285 18.304C53.5805 18.056 53.2085 17.72 52.9125 17.296L53.5245 16.756C53.7725 17.124 54.0925 17.4 54.4845 17.584C54.8845 17.768 55.3085 17.86 55.7565 17.86C56.1405 17.86 56.4925 17.788 56.8125 17.644C57.1405 17.508 57.4005 17.296 57.5925 17.008C57.7925 16.72 57.8925 16.36 57.8925 15.928V14.824C57.6605 15.208 57.3405 15.512 56.9325 15.736C56.5325 15.96 56.1085 16.072 55.6605 16.072ZM55.9845 15.208C56.2085 15.208 56.4245 15.168 56.6325 15.088C56.8405 15.008 57.0325 14.904 57.2085 14.776C57.3845 14.64 57.5325 14.488 57.6525 14.32C57.7725 14.152 57.8525 13.98 57.8925 13.804V12.004C57.7805 11.716 57.6205 11.464 57.4125 11.248C57.2045 11.024 56.9685 10.852 56.7045 10.732C56.4405 10.604 56.1685 10.54 55.8885 10.54C55.5685 10.54 55.2805 10.608 55.0245 10.744C54.7765 10.88 54.5645 11.064 54.3885 11.296C54.2125 11.52 54.0765 11.772 53.9805 12.052C53.8845 12.332 53.8365 12.616 53.8365 12.904C53.8365 13.216 53.8925 13.512 54.0045 13.792C54.1165 14.064 54.2685 14.308 54.4605 14.524C54.6525 14.74 54.8805 14.908 55.1445 15.028C55.4085 15.148 55.6885 15.208 55.9845 15.208ZM63.4248 16.12C62.9528 16.12 62.5208 16.036 62.1288 15.868C61.7448 15.692 61.4088 15.456 61.1208 15.16C60.8408 14.856 60.6208 14.508 60.4608 14.116C60.3088 13.724 60.2328 13.308 60.2328 12.868C60.2328 12.276 60.3688 11.736 60.6408 11.248C60.9128 10.76 61.2888 10.368 61.7688 10.072C62.2568 9.776 62.8128 9.628 63.4368 9.628C64.0688 9.628 64.6168 9.78 65.0808 10.084C65.5528 10.38 65.9168 10.772 66.1728 11.26C66.4368 11.74 66.5688 12.26 66.5688 12.82C66.5688 12.9 66.5648 12.98 66.5568 13.06C66.5568 13.132 66.5528 13.188 66.5448 13.228H61.3488C61.3808 13.636 61.4928 14 61.6848 14.32C61.8848 14.632 62.1408 14.88 62.4528 15.064C62.7648 15.24 63.1008 15.328 63.4608 15.328C63.8448 15.328 64.2048 15.232 64.5408 15.04C64.8848 14.848 65.1208 14.596 65.2488 14.284L66.1608 14.536C66.0248 14.84 65.8208 15.112 65.5488 15.352C65.2848 15.592 64.9688 15.78 64.6008 15.916C64.2408 16.052 63.8488 16.12 63.4248 16.12ZM61.3128 12.496H65.5848C65.5528 12.088 65.4368 11.728 65.2368 11.416C65.0368 11.104 64.7808 10.86 64.4688 10.684C64.1568 10.508 63.8128 10.42 63.4368 10.42C63.0688 10.42 62.7288 10.508 62.4168 10.684C62.1048 10.86 61.8488 11.104 61.6488 11.416C61.4568 11.728 61.3448 12.088 61.3128 12.496ZM70.924 15.688C70.836 15.728 70.716 15.78 70.564 15.844C70.412 15.908 70.236 15.964 70.036 16.012C69.836 16.06 69.624 16.084 69.4 16.084C69.144 16.084 68.908 16.04 68.692 15.952C68.476 15.856 68.304 15.712 68.176 15.52C68.048 15.32 67.984 15.072 67.984 14.776V10.564H67.132V9.736H67.984V7.648H69.04V9.736H70.444V10.564H69.04V14.452C69.056 14.676 69.132 14.844 69.268 14.956C69.404 15.06 69.564 15.112 69.748 15.112C69.956 15.112 70.148 15.076 70.324 15.004C70.5 14.932 70.616 14.88 70.672 14.848L70.924 15.688Z" fill="white"/>
</svg>
